<svg xmlns="http://www.w3.org/2000/svg" width="500" height="500" viewBox="0 0 375 375" preserveAspectRatio="xMidYMid meet">
  <defs>
    <clipPath id="circle">
      <circle cx="187.5" cy="187.5" r="187.5"/>
    </clipPath>
  </defs>

  <!-- Turquoise circular background -->
  <circle cx="187.5" cy="187.5" r="187.5" fill="#00afb9"/>

  <!-- White icon content -->
  <g fill="#ffffff">
    <g transform="translate(63.223133, 274.187982)">
      <path d="M 47.921875 -167.296875 L 79.203125 -121.8125 L 110.5 -167.296875 L 162.640625 -167.296875 L 100.953125 -80.3125 L 100.953125 0 L 57.46875 0 L 57.46875 -80.3125 L -4.21875 -167.296875 Z M 47.921875 -167.296875 "/>
    </g>
    <g transform="translate(172.387826, 274.187982)">
      <path d="M 142 -56.796875 C 142 -38.898438 135.597656 -24.332031 122.796875 -13.09375 C 110.003906 -1.851562 93.550781 3.765625 73.4375 3.765625 C 53.46875 3.765625 37.046875 -1.816406 24.171875 -12.984375 C 11.304688 -24.148438 4.875 -38.753906 4.875 -56.796875 C 4.875 -74.691406 11.304688 -89.296875 24.171875 -100.609375 C 37.046875 -111.929688 53.46875 -117.59375 73.4375 -117.59375 C 93.40625 -117.59375 109.820312 -111.972656 122.6875 -100.734375 C 135.5625 -89.492188 142 -74.847656 142 -56.796875 Z M 73.4375 -31.28125 C 81.425781 -31.28125 87.75 -33.644531 92.40625 -38.375 C 97.070312 -43.113281 99.40625 -49.253906 99.40625 -56.796875 C 99.40625 -64.046875 97.035156 -70.144531 92.296875 -75.09375 C 87.566406 -80.050781 81.207031 -82.53125 73.21875 -82.53125 C 65.675781 -82.53125 59.5 -80.125 54.6875 -75.3125 C 49.882812 -70.507812 47.484375 -64.335938 47.484375 -56.796875 C 47.484375 -49.109375 49.882812 -42.929688 54.6875 -38.265625 C 59.5 -33.609375 65.75 -31.28125 73.4375 -31.28125 Z M 73.4375 -31.28125 "/>
    </g>
  </g>
</svg>