<?xml version="1.0" encoding="UTF-8"?><svg id="a" xmlns="http://www.w3.org/2000/svg" viewBox="0 0 600.09 553.34"><defs><style>.b{fill:#fff;}.c{fill:#10b981;}.d{fill:#4b5563;}</style></defs><path class="d" d="M416.39,311.61c-14.55,0-19.32-29.6-21.61-44.43-2.53-16.38,10.26-25.79,26.63-28.32,22.79-3.52,39.61-24.64,53.06-51.12,11.62-22.89,14.98-45.42,15.01-45.64v.1s59.43,8.16,59.43,8.16c-.43,3.15-5.48,31.33-20.03,62.73-24.39,52.61-60.96,84.35-105.81,101.6-1.46.56-5.16-3.1-6.68-3.1Z"/><path class="b" d="M530.02,183.33l-38.76-10.98c-14.24-4.03-22.57-18.89-18.51-33.02l16.24-56.45c4.07-14.13,19.05-22.39,33.3-18.36l38.76,10.98c14.24,4.03,22.57,18.89,18.51,33.02l-16.24,56.45c-4.07,14.13-19.05,22.39-33.3,18.36Z"/><path class="b" d="M479.66,165.65l-32.17-38.74c-6.1-7.34-5.03-18.29,2.37-24.34h0c7.4-6.05,18.45-4.99,24.55,2.35l32.17,38.74c6.1,7.34,5.03,18.29-2.37,24.34h0c-7.4,6.05-18.45,4.99-24.55-2.35Z"/><path class="d" d="M440.55,276.4c.07-14.32.06-28.8.05-42.8,0-8.82-.01-17.64,0-26.46,0-.1,0-.2,0-.3-.02-2.88-.01-5.76,0-8.81.03-11.38.05-23.15-1.19-35.69-2.35-24.7-11.22-49.29-24.98-69.26-16.03-23.27-37.58-39.31-62.33-46.4-9.32-2.82-18.54-4.58-27.12-6.05-.06,0-.11-.02-.17-.03-35.14-5.9-70.58-8.89-105.34-8.89-41.97,0-83.31,4.35-122.86,12.94-.52.11-1.04.24-1.55.37-9.45,2.45-17.71,5.51-25.25,9.36-.12.06-.23.12-.35.18-20.36,10.65-37.57,27.91-49.77,49.93C8.99,123.78,2.63,145.71,1.3,167.88c0,.05,0,.11,0,.16-.91,16.23-.81,32.07-.71,47.39.05,7.95.1,15.45.01,23.02,0,.46,0,.93,0,1.39.14,5.84.07,12.08,0,18.7-.22,19.48-.48,41.57,4.8,62.75.04.16.08.32.12.48,4.68,17.82,13.4,34.38,26.66,50.61.08.09.15.19.23.28,13.71,16.48,27.43,28.8,42.66,42.06,24.33,21.37,54.06,47.45,82.81,72.67,20.76,18.21,41.09,36.05,58.7,51.51,7.39,6.67,19.25,14.43,34.43,14.43.78,0,1.57-.02,2.36-.06,12.17-.64,23.27-5.94,31.27-14.95,13.57-15.27,12.22-34.24,11.77-40.47-.07-.98-.18-1.97-.32-2.94-2.18-14.93-5.41-34.09-8.52-52.62-.87-5.14-1.71-10.17-2.51-14.96,8.33-.87,16.88-1.83,25.63-3.19.05,0,.1-.02.15-.02,1.63-.26,3.26-.51,4.89-.77,14.52-2.26,30.98-4.82,47.56-11.52.1-.04.2-.08.3-.12,25.92-10.72,46.92-31.22,60.73-59.27,11.28-22.91,17.03-49.88,16.22-76.04Z"/><path class="b" d="M348.3,374.74c35.96-14.88,53.66-59.14,52.24-97.78.12-23.31.02-46.59.05-69.9-.08-13.63.35-27.28-1-40.89-3.38-35.7-25.3-71.72-58.79-81.15l-.18-.06c-7.19-2.18-14.9-3.65-22.43-4.95-32.59-5.47-65.67-8.34-98.71-8.34-38.41,0-76.79,3.87-114.38,12.03-6.03,1.56-11.76,3.54-17.1,6.27-28.39,14.85-44.87,48.71-46.76,80.28-1.28,22.91-.39,45.72-.64,68.62.56,23.79-1.95,50.39,3.62,72.72,3.47,13.21,10.29,24.87,18.95,35.47,11.87,14.27,24.26,25.36,38.24,37.53,41.91,36.82,99.7,87.48,141.83,124.45,2.18,2,5.51,4.27,7.78,4.27.07,0,.14,0,.21,0,5.85-.27,5.65-7.64,5.29-12.63-3.54-24.2-10.12-61.21-13.91-85.15-.83-5.78-2.13-12.41,1.31-17.3,4.75-5.85,11.55-7.48,20.59-8.98,13.35-1.49,26.74-2.6,40.04-4.66,14.77-2.35,29.89-4.26,43.75-9.87Z"/><rect class="c" x="113.59" y="146.5" width="72" height="135" rx="28" ry="28"/><rect class="c" x="230.59" y="146.5" width="72" height="135" rx="28" ry="28"/><path class="c" d="M270.74,346.51c-6.49-.05-12.81-.68-17.73-3.66-8.16-4.63-9.61-16.5-2.18-22.45,4.54-3.85,10.9-4.42,16.79-4.78,4.68-.27,9.49-.46,14.15-1.12,18.21-2.19,35.09-12.17,43.72-28.8,4.59-7.66,6.05-17.38,12.77-23.37,8.1-7.23,19.7-4.14,22.81,6.28,2.75,10.15-3.01,20.98-7.3,30.22-14.08,30.07-47.36,47.9-82.82,47.68h-.21Z"/></svg>