<?xml version="1.0" encoding="UTF-8"?><svg id="a" xmlns="http://www.w3.org/2000/svg" xmlns:xlink="http://www.w3.org/1999/xlink" viewBox="2155.23 0 1000 1000" preserveAspectRatio="none"><defs><style>.c,.d{fill:none;}.d{stroke-miterlimit:10;}.d,.e{stroke:aqua;stroke-width:.5px;}.e{fill:#001628;stroke-linejoin:round;}.f{clip-path:url(#b);}</style><clipPath id="b"><rect class="c" x="2155.23" width="1000" height="1000"/></clipPath></defs><g class="f"><polygon class="e" points="2294.65 518.91 2359.82 542.72 2439.3 499.45 2487.18 542.72 2509.71 569.18 2546.85 573.95 2577.78 588.78 2648.62 599.59 2732.1 587.4 2810.09 524.87 2843.06 482.45 2885.51 501 2918.03 534.99 2965.9 512.58 2990.74 531.9 3063.98 547.62 3135.28 517.17 3160.23 550.43 3160.23 599.73 2150.23 599.73 2150.23 515.45 2176.55 537.55 2248.35 554.31 2294.65 518.91"/><polygon class="e" points="2439.3 499.45 2420.63 554.31 2450.08 535.75 2439.3 499.45"/><polygon class="e" points="2450.08 535.75 2487.85 585.02 2475.97 554.31 2487.18 542.72 2439.3 499.45 2450.08 535.75"/><polygon class="e" points="2487.85 585.02 2532.42 599.61 2532.42 595.65 2475.97 554.31 2487.85 585.02"/><polygon class="e" points="2420.63 554.31 2406.01 599.6 2487.85 585.02 2450.08 535.75 2420.63 554.31"/><polyline class="e" points="2406.01 599.53 2406.67 599.34 2487.85 576.33 2532.42 599.54"/><polygon class="e" points="2487.18 542.72 2532.42 595.65 2475.97 554.31 2487.18 542.72"/><polygon class="e" points="2546.85 574.01 2577.32 588.55 2584.91 599.66 2532.42 599.61 2532.42 595.65 2546.85 574.01"/><polygon class="e" points="2420.63 554.31 2360.37 542.72 2439.3 499.45 2420.63 554.31"/><polygon class="e" points="2360.37 542.72 2337.84 589.85 2325.8 549.38 2360.37 542.72"/><polygon class="e" points="2325.8 549.38 2313.3 525.72 2360.37 542.72 2325.8 549.38"/><polygon class="e" points="2337.84 589.85 2420.63 554.31 2360.37 542.72 2337.84 589.85"/><polygon class="e" points="2420.63 554.31 2337.84 589.85 2343.08 599.6 2406.01 599.6 2420.63 554.31"/><polygon class="e" points="2325.8 549.38 2297.28 568.95 2313.3 525.72 2325.8 549.38"/><polygon class="e" points="2325.8 549.38 2337.84 589.85 2313.3 599.6 2297.28 568.95 2325.8 549.38"/><polygon class="e" points="2782.78 564.35 2810.09 587.53 2828.3 580.9 2810.09 524.87 2796.61 545.91 2782.78 564.35"/><polygon class="e" points="2810.09 587.53 2799.48 599.6 2750.2 599.6 2782.78 564.35 2810.09 587.53"/><polygon class="e" points="2706.81 599.59 2750.2 599.6 2782.78 564.35 2706.81 599.59"/><polygon class="e" points="2810.09 524.87 2847.15 542.13 2865.35 517.17 2843.06 482.45 2810.09 524.87"/><polygon class="e" points="2865.35 517.17 2897.03 547.16 2906.4 544.75 2885.51 501 2843.06 482.45 2865.35 517.17"/><polygon class="e" points="2865.35 517.17 2897.03 547.16 2906.4 577.2 2877.11 590.24 2865.35 549.38 2865.35 517.17"/><polygon class="e" points="2865.35 517.17 2865.35 549.38 2852.51 578.07 2847.15 542.13 2865.35 517.17"/><polygon class="e" points="2852.51 578.07 2828.3 580.9 2810.09 524.87 2847.15 542.13 2852.51 578.07"/><polygon class="e" points="2828.3 577.5 2852.51 599.58 2799.48 599.58 2810.09 585.33 2828.3 577.5"/><polygon class="e" points="2877.11 590.24 2852.51 599.6 2852.51 578.07 2865.35 549.38 2877.11 590.24"/><polygon class="e" points="2906.4 544.75 2928.99 564.35 2918.03 534.99 2885.51 501 2906.4 544.75"/><polygon class="e" points="2965.9 512.58 2974.68 557.5 2958.78 574.49 2918.03 534.99 2965.9 512.58"/><polygon class="e" points="2928.99 564.35 2944.38 599.6 2958.78 574.49 2918.03 534.99 2928.99 564.35"/><polygon class="e" points="2974.68 557.5 2990.74 569.38 2990.74 531.9 2965.9 512.58 2974.68 557.5"/><polygon class="e" points="2958.78 574.49 2972.07 599.69 2974.68 557.5 2958.78 574.49"/><polygon class="e" points="2906.4 577.2 2928.99 564.35 2906.4 544.75 2897.03 547.16 2906.4 577.2"/><polygon class="e" points="2906.4 577.2 2920.57 598.74 2928.99 564.35 2906.4 577.2"/><polygon class="e" points="2990.74 569.38 3029.51 581.54 3063.98 547.62 2990.74 531.9 2990.74 569.38"/><polygon class="e" points="3029.51 581.54 3073.43 592.13 3108 556.72 3063.98 547.62 3029.51 581.54"/><polygon class="e" points="3135.69 517.72 3142.7 586.99 3107.38 556.59 3135.69 517.72"/><line class="e" x1="3142.7" y1="586.99" x2="3158.99" y2="600"/><polyline class="e" points="2297.28 568.95 2269.39 578.48 2248.35 554.31"/><line class="e" x1="2269.39" y1="578.48" x2="2294.65" y2="518.91"/><polyline class="e" points="2257.16 564.43 2202.12 580.94 2176.55 537.55 2167.31 582.78 2150.23 599.73"/><polyline class="e" points="2202.12 580.94 2180.19 599.6 2167.31 582.78"/><line class="d" x1="2149.75" y1="600" x2="60.17" y2="1010"/><line class="d" x1="2186.8" y1="600" x2="252.01" y2="1010"/><line class="d" x1="2223.86" y1="600" x2="443.85" y2="1010"/><line class="d" x1="2260.91" y1="600" x2="635.69" y2="1010"/><line class="d" x1="2297.97" y1="600" x2="827.53" y2="1010"/><line class="d" x1="2335.02" y1="600" x2="1019.37" y2="1010"/><line class="d" x1="2372.08" y1="600" x2="1211.21" y2="1010"/><line class="d" x1="2409.14" y1="600" x2="1403.04" y2="1010"/><line class="d" x1="2446.19" y1="600" x2="1594.88" y2="1010"/><line class="d" x1="2483.25" y1="600" x2="1786.72" y2="1010"/><line class="d" x1="2520.3" y1="600" x2="1978.56" y2="1010"/><line class="d" x1="2557.36" y1="600" x2="2170.4" y2="1010"/><line class="d" x1="2594.42" y1="600" x2="2362.24" y2="1010"/><line class="d" x1="2631.47" y1="600" x2="2554.08" y2="1010"/><line class="d" x1="2668.53" y1="600" x2="2745.92" y2="1010"/><line class="d" x1="2705.58" y1="600" x2="2937.76" y2="1010"/><line class="d" x1="2742.64" y1="600" x2="3129.6" y2="1010"/><line class="d" x1="2779.7" y1="600" x2="3321.44" y2="1010"/><line class="d" x1="2816.75" y1="600" x2="3513.28" y2="1010"/><line class="d" x1="2853.81" y1="600" x2="3705.11" y2="1010"/><line class="d" x1="2890.86" y1="600" x2="3896.95" y2="1010"/><line class="d" x1="2927.92" y1="600" x2="4088.79" y2="1010"/><line class="d" x1="2964.97" y1="600" x2="4280.63" y2="1010"/><line class="d" x1="3002.03" y1="600" x2="4472.47" y2="1010"/><line class="d" x1="3039.09" y1="600" x2="4664.31" y2="1010"/><line class="d" x1="3076.14" y1="600" x2="4856.15" y2="1010"/><line class="d" x1="3113.2" y1="600" x2="5047.99" y2="1010"/><line class="d" x1="3150.25" y1="600" x2="5239.83" y2="1010"/><line class="d" x1="3161.88" y1="600" x2="2138.12" y2="600"/><line class="d" x1="3180.49" y1="603.57" x2="2119.51" y2="603.57"/><line class="d" x1="3200.5" y1="607.41" x2="2099.5" y2="607.41"/><line class="d" x1="3222.09" y1="611.55" x2="2077.91" y2="611.55"/><line class="d" x1="3245.44" y1="616.02" x2="2054.56" y2="616.02"/><line class="d" x1="3270.77" y1="620.88" x2="2029.23" y2="620.88"/><line class="d" x1="3298.36" y1="626.17" x2="2001.64" y2="626.17"/><line class="d" x1="3328.51" y1="631.95" x2="1971.49" y2="631.95"/><line class="d" x1="3361.6" y1="638.3" x2="1938.4" y2="638.3"/><line class="d" x1="3398.09" y1="645.3" x2="1901.91" y2="645.3"/><line class="d" x1="3438.51" y1="653.05" x2="1861.49" y2="653.05"/><line class="d" x1="3483.55" y1="661.68" x2="1816.45" y2="661.68"/><line class="d" x1="3534.05" y1="671.37" x2="1765.95" y2="671.37"/><line class="d" x1="3591.06" y1="682.3" x2="1708.94" y2="682.3"/><line class="d" x1="3655.93" y1="694.74" x2="1644.07" y2="694.74"/><line class="d" x1="3730.41" y1="709.02" x2="1569.59" y2="709.02"/><line class="d" x1="3816.79" y1="725.58" x2="1483.21" y2="725.58"/><line class="d" x1="3918.19" y1="745.03" x2="1381.81" y2="745.03"/><line class="d" x1="4038.9" y1="768.18" x2="1261.1" y2="768.18"/><line class="d" x1="4185" y1="796.19" x2="1115" y2="796.19"/><line class="d" x1="4365.44" y1="830.79" x2="934.56" y2="830.79"/><line class="d" x1="4593.96" y1="874.61" x2="706.04" y2="874.61"/><line class="d" x1="4892.73" y1="931.9" x2="407.27" y2="931.9"/><line class="d" x1="5300" y1="1010" y2="1010"/></g></svg>