<?xml version="1.0" encoding="UTF-8"?><svg id="a" xmlns="http://www.w3.org/2000/svg" viewBox="0 0 499.88 495.55"><defs><style>.b{fill:#00afb9;}</style></defs><path class="b" d="M79.37,258.42l95.47-162.02.2.42,77.25,162.07-.38.02-172.55-.5ZM174.8,97.46l-94.53,160.41,171.25.56-76.72-160.97Z"/><path class="b" d="M251.87,259.16l-.19-.39-77.28-162.14.45.05,165.66,18.47-.24.34-88.4,143.67ZM175.24,97.23l76.7,160.94,87.68-142.61-164.38-18.33Z"/><path class="b" d="M340.46,115.65l-.42-.05-165.91-18.5.56-.38L298.5,12.49l.12.29,41.84,102.87ZM175.52,96.76l164.15,18.3-41.41-101.81-122.74,83.51Z"/><path class="b" d="M174.73,97.3l-.13-.26-35.86-72.8.37-.03,160.19-11.65-124.57,84.74ZM139.51,24.68l35.41,71.88L297.47,13.19l-157.96,11.49Z"/><path class="b" d="M139.14,24.71l-.07-.5L248.01,3.41h.05s52.31,9.57,52.31,9.57l-161.21,11.73ZM248.01,3.92l-104.61,19.98,153.01-11.13-48.4-8.85Z"/><path class="b" d="M421.39,120.84l-81.53-5.28-.06-.15-42.04-103.41,123.62,108.84ZM340.21,115.08l79.75,5.17L299,13.75l41.2,101.33Z"/><path class="b" d="M421.24,121.63L297.19,12.16l82.7,31.17.04.08,41.31,78.22ZM299.57,13.59l119.95,105.86-39.99-75.72-79.97-30.14Z"/><path class="b" d="M420.55,120.85l-41.84-78.67,68.9,68.67-27.06,10ZM380.72,44.88l40.08,75.35,25.91-9.58-65.99-65.77Z"/><path class="b" d="M469.13,145.93l-49.08-25.43,27.21-10.05,21.87,35.49ZM421.29,120.58l46.47,24.08-20.71-33.6-25.76,9.52Z"/><path class="b" d="M432.99,261.27l-.49-.03-181.05-2.36.25-.36,88.37-143.62.2.32,92.71,146.05ZM252.36,258.45l179.69,2.26-91.99-144.89-87.69,142.63Z"/><path class="b" d="M326.75,420.44l-.18-.41-75.05-161.65,181.46,2.42-.24.36-105.98,159.28ZM252.31,258.94l74.52,160.48,105.24-158.18-179.76-2.3Z"/><path class="b" d="M170.24,397.4l-.23-.36-90.63-139.12.44-.02,172.52.68-.21.39-81.89,138.43ZM80.27,258.37l89.92,138.04,81.29-137.29-171.21-.75Z"/><path class="b" d="M66.88,402.93l.03-.29,12.73-145.24.4.61,90.63,139.12-.43.02-103.35,5.77ZM80.01,258.89l-12.58,143.51,102.34-5.72-89.76-137.79Z"/><path class="b" d="M207.57,487.9l-141.24-85.44.81-.05,103.24-5.77.07.16,37.12,91.09ZM67.98,402.86l138.56,83.82-36.49-89.53-102.08,5.7Z"/><path class="b" d="M208.96,488.15l-79.23-24.86-64.36-62,143.58,86.86ZM130.04,462.89l75.12,23.54-136.21-82.4,61.09,58.86Z"/><path class="b" d="M68.18,404.32l-30.63-37.86L1.86,258.22l.46-.18,65.85,146.27ZM38,366.26l28.13,34.74L3.83,262.6l34.17,103.66Z"/><path class="b" d="M248.01,493.3h-.04s-43.18-6.08-43.18-6.08l150.21-12.27.06.5-107.06,17.85ZM209.32,487.36l38.68,5.44,101.09-16.86-139.78,11.42Z"/><path class="b" d="M206.93,487.65l-37.11-91.06.43.06,157.29,23.14-.63.36-119.98,67.5ZM170.62,397.21l36.56,89.72,118.85-66.86-155.42-22.86Z"/><path class="b" d="M205.95,487.64l.98-.56,119.96-67.49.12.23,28.42,55.61-.38.03-149.1,12.18ZM326.69,420.28l-118.52,66.68,146.46-11.97-27.94-54.71Z"/><path class="b" d="M354.96,475.61l-.16-.29-28.38-55.26.3-.08,121.32-33.94-.71.68-92.37,88.89ZM327.16,420.37l27.93,54.42,91.18-87.75-119.12,33.33Z"/><path class="b" d="M67.32,403.64L1.71,257.9h78.39l-.02.27-12.75,145.47ZM2.48,258.4l64.51,143.29,12.56-143.29H2.48Z"/><path class="b" d="M45.32,133.09l.54-.62L139.18,24.01l.17.34,35.83,72.74-129.86,36ZM139.07,24.91l-92.3,107.26,127.69-35.4-35.4-71.86Z"/><path class="b" d="M80.15,258.4H1.74l.12-.33,44.22-126.28,34.07,126.61ZM2.45,257.9h77.05l-33.48-124.42L2.45,257.9Z"/><path class="b" d="M2.33,258.23l-.48-.14,25.93-106,.04-.05,18.86-20.47L2.33,258.23ZM28.24,152.33L3.56,253.2l41.85-119.51-17.17,18.64Z"/><path class="b" d="M27.08,153.59l13.71-28.8L138.95,24.29l.37.34-93.08,108.17-19.16,20.8ZM41.17,125.11l-12.22,25.72,16.92-18.36L133.77,30.3,41.17,125.11Z"/><path class="b" d="M79.74,258.79l-.15-.57-33.84-125.76.24-.07,129.37-35.86-.31.53-95.3,161.73ZM46.35,132.81l33.56,124.7,94.38-160.17-127.94,35.47Z"/><path class="b" d="M327.21,420.25l-.46-.07-156.92-23.08.17-.31,81.97-138.5.21.46,75.03,161.5ZM170.6,396.71l155.77,22.91-74.44-160.2-81.33,137.29Z"/><path class="b" d="M326.2,420.35l.38-.56,106.11-158.88.08.66,14.66,125.15-.21.06-121.02,33.57ZM432.35,262.29l-104.97,157.22,119.51-33.15-14.53-124.07Z"/><path class="b" d="M447.03,387.53l-14.79-126.79,65.16,1.76.08.34-50.45,124.69ZM432.8,261.24l14.49,124.31,49.59-122.55-64.08-1.76Z"/><path class="b" d="M432.85,262.61l-.54-.88-92.71-146.65,81.31,5.23.02.22,11.93,142.09ZM340.53,115.64l91.65,144.95-11.75-139.82-79.91-5.14Z"/><path class="b" d="M497.28,263l-64.99-1.76-11.96-141.87,76.95,143.63ZM432.75,260.74l64.08,1.76-75.81-140.79,11.73,139.03Z"/><path class="b" d="M497.48,262.84l-.45.02-76.96-142.92,48.59,25.18.03.11,28.79,117.61ZM421.28,121.13l75.26,139.77-28.31-115.44-46.95-24.33Z"/><rect class="b" x="49.13" y="93.97" width="143.35" height=".5" transform="translate(-1.02 187.12) rotate(-75.28)"/><polygon class="b" points="102.69 163.72 102.39 163.33 298.64 12.56 298.94 12.95 102.69 163.72"/><rect class="b" x="140.84" y="143.25" width=".5" height="93.57" transform="translate(-95.44 198.59) rotate(-55.48)"/><rect class="b" x="168.82" y="181.63" width="121.93" height=".5" transform="translate(-62.66 162.94) rotate(-34.66)"/><polygon class="b" points="280.18 147.24 279.68 147.17 298.54 12.72 299.04 12.79 280.18 147.24"/><rect class="b" x="209.25" y="-7.21" width=".5" height="186.54" transform="translate(7.17 187.84) rotate(-49.04)"/><rect class="b" x="306.07" y="142.18" width=".5" height="143.84" transform="translate(-57.2 127.34) rotate(-21.53)"/><rect class="b" x="255.92" y="165.73" width=".5" height="166.09" transform="translate(-72.52 388.34) rotate(-67.17)"/><rect class="b" x="119.88" y="268.16" width="104.76" height=".5" transform="translate(-117.7 401.23) rotate(-81.92)"/><rect class="b" x="162.63" y="300.39" width="172.35" height=".5" transform="translate(-62.14 64.84) rotate(-13.22)"/><polygon class="b" points="2.29 258.41 1.95 258.05 102.37 163.34 102.71 163.71 2.29 258.41"/><rect class="b" x="133.47" y="157.55" width=".5" height="168.69" transform="translate(-79.94 66.55) rotate(-21.69)"/><polygon class="b" points="400.61 173.27 279.88 147.45 279.98 146.96 400.71 172.78 400.61 173.27"/><rect class="b" x="302.9" y="226.76" width="127.58" height=".5" transform="translate(-20.4 417.17) rotate(-57.92)"/><rect class="b" x="349.48" y="-2.06" width=".5" height="189.91" transform="translate(4.75 202.1) rotate(-32.44)"/><rect class="b" x="382.65" y="146.52" width="56.28" height=".5" transform="translate(126.24 477.41) rotate(-68.95)"/><polygon class="b" points="496.93 263.16 400.49 173.21 400.83 172.84 497.28 262.8 496.93 263.16"/><polygon class="b" points="332.74 281.25 332.68 280.75 497.08 262.73 497.13 263.23 332.74 281.25"/><polygon class="b" points="337.19 364.67 332.46 281.02 332.96 280.99 337.69 364.64 337.19 364.67"/><rect class="b" x="392.18" y="319.32" width=".5" height="112.06" transform="translate(-50.88 688.97) rotate(-79)"/><polygon class="b" points="337.57 364.87 337.3 364.45 496.97 262.77 497.24 263.19 337.57 364.87"/><polygon class="b" points="354.82 474.99 337.19 364.7 337.68 364.62 355.31 474.91 354.82 474.99"/><rect class="b" x="182.53" y="425.9" width="179.32" height=".5" transform="translate(-218.24 302.99) rotate(-43.34)"/><rect class="b" x="250.91" y="253.39" width=".5" height="178.16" transform="translate(-143.08 500.39) rotate(-75.57)"/><rect class="b" x="103.31" y="369.68" width="101.62" height=".5" transform="translate(-240.01 442.46) rotate(-77.81)"/><polygon class="b" points="206.75 487.81 143.17 419.76 143.54 419.42 207.12 487.47 206.75 487.81"/><polygon class="b" points="129.97 463.27 129.49 463.12 143.12 419.51 143.6 419.66 129.97 463.27"/><polygon class="b" points="143.3 419.83 67.29 402.63 67.4 402.14 143.41 419.34 143.3 419.83"/><rect class="b" x="139.55" y="391.87" width="201.7" height=".5" transform="translate(-97.52 80.1) rotate(-15.77)"/><polygon class="b" points="143.17 419.75 61.41 324.3 61.79 323.97 143.55 419.42 143.17 419.75"/><rect class="b" x="61.56" y="321.95" width="103.37" height=".5" transform="translate(-11.9 4.43) rotate(-2.13)"/><rect class="b" x="-.8" y="243.58" width="165.75" height=".5" transform="translate(-174.46 263.32) rotate(-75.74)"/><polygon class="b" points="61.41 324.3 1.94 258.4 2.31 258.06 61.78 323.97 61.41 324.3"/><polygon class="b" points="37.88 366.56 37.44 366.33 61.37 324.02 61.82 324.25 37.88 366.56"/><polygon class="b" points="102.41 163.74 40.81 124.9 41.08 124.48 102.68 163.31 102.41 163.74"/><polygon class="b" points="206.17 83.79 205.73 83.56 248 3.41 248.45 3.64 206.17 83.79"/><polygon class="b" points="280.11 147.37 279.75 147.03 379.33 42.93 379.7 43.27 280.11 147.37"/><circle class="b" cx="179.78" cy="216.35" r="2.66"/><path class="b" d="M105.06,163.59c0,1.47-1.19,2.66-2.66,2.66s-2.66-1.19-2.66-2.66,1.19-2.66,2.66-2.66,2.66,1.19,2.66,2.66Z"/><path class="b" d="M167.49,320.02c0,1.47-1.19,2.66-2.66,2.66s-2.66-1.19-2.66-2.66,1.19-2.66,2.66-2.66,2.66,1.19,2.66,2.66Z"/><path class="b" d="M64.07,324.3c0,1.47-1.19,2.66-2.66,2.66s-2.66-1.19-2.66-2.66,1.19-2.66,2.66-2.66,2.66,1.19,2.66,2.66Z"/><circle class="b" cx="143.41" cy="419.42" r="2.66"/><circle class="b" cx="337.39" cy="364.41" r="2.66"/><path class="b" d="M335.12,280.76c0,1.47-1.19,2.66-2.66,2.66s-2.66-1.19-2.66-2.66,1.19-2.66,2.66-2.66,2.66,1.19,2.66,2.66Z"/><path class="b" d="M282.75,147.24c0,1.47-1.19,2.66-2.66,2.66s-2.66-1.19-2.66-2.66,1.19-2.66,2.66-2.66,2.66,1.19,2.66,2.66Z"/><path class="b" d="M403.09,173.12c0,1.47-1.19,2.66-2.66,2.66s-2.66-1.19-2.66-2.66,1.19-2.66,2.66-2.66,2.66,1.19,2.66,2.66Z"/><path class="b" d="M209.5,83.79c0,1.47-1.19,2.66-2.66,2.66s-2.66-1.19-2.66-2.66,1.19-2.66,2.66-2.66,2.66,1.19,2.66,2.66Z"/><path class="b" d="M499.88,262.87c0,1.82-1.48,3.29-3.29,3.29s-3.29-1.48-3.29-3.29,1.47-3.29,3.29-3.29,3.29,1.48,3.29,3.29Z"/><path class="b" d="M436.28,260.74c0,2.23-1.81,4.04-4.04,4.04s-4.04-1.81-4.04-4.04,1.81-4.04,4.04-4.04,4.04,1.81,4.04,4.04Z"/><path class="b" d="M330.24,420.44c0,2.23-1.81,4.04-4.04,4.04s-4.04-1.81-4.04-4.04,1.81-4.04,4.04-4.04,4.04,1.81,4.04,4.04Z"/><path class="b" d="M451.47,385.48c0,2.23-1.81,4.04-4.04,4.04s-4.04-1.81-4.04-4.04,1.81-4.04,4.04-4.04,4.04,1.81,4.04,4.04Z"/><path class="b" d="M358.01,475.61c0,1.63-1.32,2.95-2.95,2.95s-2.95-1.32-2.95-2.95,1.32-2.95,2.95-2.95,2.95,1.32,2.95,2.95Z"/><path class="b" d="M249.71,493.3c0,1.24-1,2.24-2.24,2.24s-2.24-1-2.24-2.24,1-2.24,2.24-2.24,2.24,1,2.24,2.24Z"/><path class="b" d="M210.39,487.64c0,2.23-1.81,4.04-4.04,4.04s-4.04-1.81-4.04-4.04,1.81-4.04,4.04-4.04,4.04,1.81,4.04,4.04Z"/><path class="b" d="M131.49,463.36c0,1.42-1.15,2.56-2.56,2.56s-2.56-1.15-2.56-2.56,1.15-2.56,2.56-2.56,2.56,1.15,2.56,2.56Z"/><path class="b" d="M173.86,397.4c0,2.23-1.81,4.04-4.04,4.04s-4.04-1.81-4.04-4.04,1.81-4.04,4.04-4.04,4.04,1.81,4.04,4.04Z"/><path class="b" d="M70.73,402.93c0,2.23-1.81,4.04-4.04,4.04s-4.04-1.81-4.04-4.04,1.81-4.04,4.04-4.04,4.04,1.81,4.04,4.04Z"/><path class="b" d="M40.84,367.1c0,1.35-1.1,2.45-2.45,2.45s-2.44-1.09-2.44-2.45,1.09-2.45,2.44-2.45,2.45,1.09,2.45,2.45Z"/><path class="b" d="M256.34,258.4c0,2.23-1.81,4.04-4.04,4.04s-4.04-1.81-4.04-4.04,1.81-4.04,4.04-4.04,4.04,1.81,4.04,4.04Z"/><path class="b" d="M84.19,258.89c0,2.23-1.81,4.04-4.04,4.04s-4.04-1.81-4.04-4.04,1.81-4.04,4.04-4.04,4.04,1.81,4.04,4.04Z"/><path class="b" d="M4.84,258.04c0,1.34-1.08,2.42-2.42,2.42s-2.42-1.08-2.42-2.42,1.08-2.42,2.42-2.42,2.42,1.08,2.42,2.42Z"/><path class="b" d="M50.51,133.09c0,2.23-1.81,4.04-4.04,4.04s-4.04-1.81-4.04-4.04,1.81-4.04,4.04-4.04,4.04,1.81,4.04,4.04Z"/><path class="b" d="M179.22,97.3c0,2.23-1.81,4.04-4.04,4.04s-4.04-1.81-4.04-4.04,1.81-4.04,4.04-4.04,4.04,1.81,4.04,4.04Z"/><path class="b" d="M143.36,25.01c0,2.23-1.81,4.04-4.04,4.04s-4.04-1.81-4.04-4.04,1.81-4.04,4.04-4.04,4.04,1.81,4.04,4.04Z"/><path class="b" d="M251.73,2.96c0,1.63-1.33,2.96-2.96,2.96s-2.96-1.33-2.96-2.96,1.32-2.96,2.96-2.96,2.96,1.33,2.96,2.96Z"/><path class="b" d="M302.83,13.75c0,2.23-1.81,4.04-4.04,4.04s-4.04-1.81-4.04-4.04,1.81-4.04,4.04-4.04,4.04,1.81,4.04,4.04Z"/><path class="b" d="M343.91,114.9c0,2.23-1.81,4.04-4.04,4.04s-4.04-1.81-4.04-4.04,1.81-4.04,4.04-4.04,4.04,1.81,4.04,4.04Z"/><circle class="b" cx="378.71" cy="42.18" r="3.46"/><path class="b" d="M424.37,120.84c0,2.23-1.81,4.04-4.04,4.04s-4.04-1.81-4.04-4.04,1.81-4.04,4.04-4.04,4.04,1.81,4.04,4.04Z"/><circle class="b" cx="447.61" cy="110.86" r="2.85"/><path class="b" d="M473.17,145.19c0,2.23-1.81,4.04-4.04,4.04s-4.04-1.81-4.04-4.04,1.81-4.04,4.04-4.04,4.04,1.81,4.04,4.04Z"/><path class="b" d="M43.72,124.01c0,1.53-1.24,2.77-2.77,2.77s-2.77-1.24-2.77-2.77,1.24-2.77,2.77-2.77,2.77,1.24,2.77,2.77Z"/><path class="b" d="M29.52,152.67c0,1.35-1.1,2.45-2.45,2.45s-2.45-1.1-2.45-2.45,1.1-2.45,2.45-2.45,2.45,1.1,2.45,2.45Z"/></svg>